# xmcd CD database file
#
# Track frame offsets:
#	150
#	21381
#	37185
#	60628
#	78750
#	95220
#	107492
#	125822
#	143090
#	159126
#	178637
#	197190
#
# Disc length: 2900 seconds
#
# Revision: 2
# Processed by: cddbd v1.4b41PL1 Copyright (c) Steve Scherf et al.
# Submitted via: Feurio! 1.54ß - http://www.feurio.com
#
DISCID=a30b520c
DTITLE=Bruce Springsteen - Born In The U.S.A.
DYEAR=1900
DGENRE=
TTITLE0=Born In The U.S.A.
TTITLE1=Cover Me
TTITLE2=Darlington Country
TTITLE3=Working On The Highway
TTITLE4=Downbound Train
TTITLE5=I'm On Fire
TTITLE6=No Surrender
TTITLE7=Bobby Jean
TTITLE8=I'm Goin' Down
TTITLE9=Glory Days
TTITLE10=Dancing In The Dark
TTITLE11=My Hometown
EXTD=
EXTT0=
EXTT1=
EXTT2=
EXTT3=
EXTT4=
EXTT5=
EXTT6=
EXTT7=
EXTT8=
EXTT9=
EXTT10=
EXTT11=
PLAYORDER=
